# xmcd
#
# Track frame offsets: 
#        150
#        12431
#        24719
#        44307
#        59855
#        82529
#        96750
#        123248
#        140384
#        161014
#        176625
#        200501
#        214307
#        236365
#        253881
#
# Disc length: 3757 seconds
#
# Revision: 0
# Processed by: cddbd v1.5.2PL0 Copyright (c) Steve Scherf et al.
# Submitted via: ExactAudioCopy v0.95b4
#
DISCID=d00eab0f
DTITLE=Big Head Small Hat - Live Ahead
DYEAR=2008
DGENRE=Blues
TTITLE0=I've Had Enough
TTITLE1=Shake A Leg Meg
TTITLE2=Start It Up
TTITLE3=Pride And Joy
TTITLE4=Same Old Blues
TTITLE5=I Don't Believe
TTITLE6=Parisienne Walkways
TTITLE7=Power Of The Blues
TTITLE8=Stoop Down
TTITLE9=You Upset Me Baby
TTITLE10=Life In The Jungle
TTITLE11=Feel My Eyes On You
TTITLE12=Kill The Monkey
TTITLE13=Texas Strut
TTITLE14=Put It Right back
EXTD=
EXTT0=
EXTT1=
EXTT2=
EXTT3=
EXTT4=
EXTT5=
EXTT6=
EXTT7=
EXTT8=
EXTT9=
EXTT10=
EXTT11=
EXTT12=
EXTT13=
EXTT14=
PLAYORDER=
